<svg width="26" height="27" viewBox="0 0 26 27" fill="none" xmlns="http://www.w3.org/2000/svg">
<path d="M18.0635 10.5226C18.1755 10.4181 18.2659 10.2926 18.3295 10.1532C18.393 10.0138 18.4285 9.86319 18.4339 9.71005C18.4392 9.55692 18.4144 9.40423 18.3607 9.26071C18.3071 9.11718 18.2257 8.98563 18.1212 8.87355C18.0167 8.76148 17.8912 8.67109 17.7518 8.60753C17.6123 8.54398 17.4618 8.5085 17.3086 8.50314C17.1555 8.49778 17.0028 8.52263 16.8593 8.57628C16.7158 8.62992 16.5842 8.71131 16.4721 8.8158L13.0585 11.9985L9.8758 8.58364C9.66284 8.36552 9.37298 8.23942 9.06823 8.23231C8.76348 8.22521 8.46805 8.33766 8.24516 8.54561C8.02226 8.75356 7.88962 9.04049 7.8756 9.345C7.86157 9.64951 7.96729 9.94742 8.17013 10.175L11.3528 13.5886L7.93797 16.7713C7.82194 16.8747 7.72774 17.0003 7.66092 17.1406C7.5941 17.281 7.55599 17.4333 7.54884 17.5885C7.54169 17.7438 7.56564 17.8989 7.61929 18.0448C7.67293 18.1907 7.75519 18.3244 7.86122 18.4381C7.96726 18.5517 8.09493 18.643 8.23675 18.7067C8.37858 18.7703 8.53168 18.8049 8.68707 18.8085C8.84247 18.8122 8.99702 18.7847 9.14165 18.7278C9.28629 18.6708 9.41808 18.5856 9.5293 18.477L12.943 15.2955L16.1256 18.7091C16.2284 18.8273 16.3539 18.9236 16.4947 18.9922C16.6354 19.0609 16.7886 19.1005 16.945 19.1086C17.1014 19.1168 17.2578 19.0935 17.405 19.0399C17.5521 18.9863 17.687 18.9037 17.8015 18.7969C17.9161 18.6901 18.008 18.5614 18.0717 18.4183C18.1354 18.2753 18.1697 18.1208 18.1725 17.9643C18.1752 17.8077 18.1465 17.6521 18.0879 17.5069C18.0292 17.3617 17.942 17.2298 17.8313 17.119L14.6498 13.7053L18.0635 10.5226Z" fill="#F24E1E"/>
<path fill-rule="evenodd" clip-rule="evenodd" d="M0.166748 13.647C0.166748 6.55949 5.91258 0.81366 13.0001 0.81366C20.0876 0.81366 25.8334 6.55949 25.8334 13.647C25.8334 20.7345 20.0876 26.4803 13.0001 26.4803C5.91258 26.4803 0.166748 20.7345 0.166748 13.647ZM13.0001 24.147C11.6212 24.147 10.2558 23.8754 8.9819 23.3477C7.70799 22.8201 6.55048 22.0466 5.57546 21.0716C4.60044 20.0966 3.82702 18.9391 3.29935 17.6652C2.77167 16.3912 2.50008 15.0259 2.50008 13.647C2.50008 12.2681 2.77167 10.9027 3.29935 9.62882C3.82702 8.3549 4.60044 7.19739 5.57546 6.22237C6.55048 5.24736 7.70799 4.47393 8.9819 3.94626C10.2558 3.41858 11.6212 3.14699 13.0001 3.14699C15.7849 3.14699 18.4556 4.25324 20.4247 6.22237C22.3938 8.1915 23.5001 10.8622 23.5001 13.647C23.5001 16.4318 22.3938 19.1025 20.4247 21.0716C18.4556 23.0407 15.7849 24.147 13.0001 24.147Z" fill="#F24E1E"/>
</svg>